Coordinates
version=1
nRows=8
nColumns=42
inDegrees=yes

Units are S.I. units (second, meters, Newtons, ...)
If the header above contains a line with 'inDegrees', this indicates whether rotational values are in degrees (yes) or radians (no).

endheader
time	pelvis_tilt	pelvis_list	pelvis_rotation	pelvis_tx	pelvis_ty	pelvis_tz	hip_flexion_r	hip_adduction_r	hip_rotation_r	knee_angle_r	knee_adduction_r	knee_angle_r_beta	ankle_angle_r	subtalar_angle_r	mtp_angle_r	hip_flexion_l	hip_adduction_l	hip_rotation_l	knee_angle_l	knee_adduction_l	knee_angle_l_beta	ankle_angle_l	subtalar_angle_l	mtp_angle_l	lumbar_extension	lumbar_bending	lumbar_rotation	arm_flex_r	arm_add_r	arm_rot_r	elbow_flex_r	pro_sup_r	wrist_flex_r	wrist_dev_r	arm_flex_l	arm_add_l	arm_rot_l	elbow_flex_l	pro_sup_l	wrist_flex_l	wrist_dev_l
      1.03000000	      8.62215954	     -2.26810119	      4.15880738	     -0.52161283	      0.89449079	     -0.10240405	     10.33647920	     -1.25923400	    -17.28197353	     39.96046659	      5.63847574	      0.69744171	     20.46025930	     21.06817489	     -7.61385932	     17.59144225	     -4.97386222	     -9.92061858	     76.84567120	     -6.73496240	      1.34120998	      4.33719356	    -15.87399748	     -7.61385932	    -18.88605447	      6.13492899	     -2.17176855	      4.48660202	    -10.02435844	    -21.17551056	     36.18108917	     90.00000001	      0.00000000	      0.00000000	     -4.41374124	     -6.74472242	    -25.57838930	     32.64760912	     90.00000001	      0.00000000	      0.00000000
      1.04000000	      8.74012279	     -2.08258968	      4.20482449	     -0.51514842	      0.89502470	     -0.10268524	      9.57290106	     -1.36684715	    -16.87463292	     39.73090742	      5.84649087	      0.69343515	     21.53034666	     21.20598671	     -7.61075641	     18.83463577	     -4.39555297	     -9.51631413	     76.34812969	     -6.51055160	      1.33252624	      5.68386014	    -15.76491288	     -7.61075641	    -19.21261767	      6.02424708	     -2.15356667	      5.15335926	    -10.32139084	    -20.34497937	     36.37894246	     90.00000001	      0.00000000	      0.00000000	     -4.67025120	     -6.58511687	    -25.55511107	     33.38611436	     90.00000001	      0.00000000	      0.00000000
      1.05000000	      8.78366858	     -1.95126762	      4.19730502	     -0.50879020	      0.89548177	     -0.10282675	      9.00619093	     -1.37666785	    -16.74625358	     39.64084859	      5.75704083	      0.69186333	     21.54275347	     21.06343069	     -7.60941063	     20.13892658	     -3.95458109	     -9.36338037	     75.59831087	     -6.40464042	      1.31943943	      5.85771294	    -15.15476228	     -7.60941063	    -19.44047354	      5.95964136	     -1.91019215	      5.78732330	    -10.54000597	    -20.16621445	     36.72914745	     90.00000001	      0.00000000	      0.00000000	     -4.67210036	     -6.43333969	    -25.47796866	     33.63271768	     90.00000001	      0.00000000	      0.00000000
      1.06000000	      9.02563793	     -1.72694199	      4.18252232	     -0.50220360	      0.89626546	     -0.10296918	      8.04621301	     -1.51019610	    -16.41256060	     39.32170319	      5.92215743	      0.68629319	     22.15344458	     21.07979289	     -7.60722490	     20.99765304	     -3.39784589	     -9.14162222	     74.44685052	     -6.15745648	      1.29934266	      6.58747296	    -14.68771990	     -7.60722490	    -19.88347852	      5.76562756	     -1.81894917	      6.47434060	    -10.68829765	    -19.61128586	     36.85687838	     90.00000001	      0.00000000	      0.00000000	     -4.90853251	     -6.34297596	    -25.47566007	     34.21808223	     90.00000001	      0.00000000	      0.00000000
      1.07000000	      9.14344499	     -1.59199884	      4.09858607	     -0.49568056	      0.89677599	     -0.10298825	      7.33383251	     -1.49016970	    -16.10882315	     39.10971377	      5.89123772	      0.68259327	     22.79468444	     21.31310112	     -7.60258437	     21.94897119	     -3.00130657	     -9.00109825	     73.10030553	     -5.88952264	      1.27584102	      7.28851496	    -13.68466789	     -7.60258437	    -20.17814104	      5.64164547	     -1.64290880	      7.23682155	    -11.06332523	    -18.32544449	     36.65301225	     90.00000001	      0.00000000	      0.00000000	     -5.36721577	     -6.09174932	    -25.55083138	     35.41489176	     90.00000001	      0.00000000	      0.00000000
      1.08000000	      9.27732071	     -1.42022471	      4.01072057	     -0.48913752	      0.89732581	     -0.10304366	      6.59136740	     -1.55684072	    -15.87225594	     38.90893323	      5.89452481	      0.67908899	     22.96484430	     21.22324692	     -7.60052713	     22.75723285	     -2.56068320	     -8.87706643	     71.44970662	     -5.58183396	      1.24703263	      7.54593946	    -13.08634023	     -7.60052713	    -20.48775245	      5.49759406	     -1.43024441	      7.85419038	    -11.23163214	    -17.96475878	     36.89842592	     90.00000001	      0.00000000	      0.00000000	     -5.46503163	     -5.92961082	    -25.51516853	     35.73742242	     90.00000001	      0.00000000	      0.00000000
      1.09000000	      9.39916916	     -1.29752357	      3.88495032	     -0.48249945	      0.89774490	     -0.10299615	      5.85367452	     -1.55492580	    -15.57869321	     38.67948151	      5.90458615	      0.67508431	     23.48492625	     21.42064943	     -7.59455380	     23.47550376	     -2.24026994	     -8.93699505	     69.56513824	     -5.36095517	      1.21414071	      8.18014465	    -11.91162207	     -7.59455380	    -20.75813689	      5.37310031	     -1.27205429	      8.58817576	    -11.56639802	    -16.70107540	     36.69132893	     90.00000001	      0.00000000	      0.00000000	     -5.85908571	     -5.66361491	    -25.68320748	     36.71447174	     90.00000001	      0.00000000	      0.00000000
      1.10000000	      9.32875062	     -1.24687748	      3.74557040	     -0.47589471	      0.89781243	     -0.10291074	      5.41744710	     -1.44181133	    -15.35584189	     38.54602832	      5.75030306	      0.67275511	     23.50444462	     21.28010664	     -7.59328796	     24.36787400	     -1.99649948	     -8.83533330	     67.55474721	     -4.97797986	      1.17905276	      8.25165927	    -11.42440062	     -7.59328796	    -20.78811242	      5.33925815	     -1.01138128	      9.11262053	    -11.69745827	    -16.57229738	     37.00855432	     90.00000001	      0.00000000	      0.00000000	     -5.97024073	     -5.43702079	    -25.61203957	     36.87153360	     90.00000001	      0.00000000	      0.00000000
